# xmcd
#
# Track frame offsets:
#        150
#        23572
#        43835
#        69555
#        71730
#        100430
#        115100
#        118300
#        157010
#        174290
#        180432
#        192525
#        217595
#        219552
#        234482
#        255957
#
# Disc length: 3642 seconds
#
# Revision: 0
# Processed by: cddbd v1.5.1PL0 Copyright (c) Steve Scherf et al.
# Submitted via: ExactAudioCopy v0.95a5
#
DISCID=df0e3810
DTITLE=Buffalo Daughter - New Rock
DYEAR=1900
DGENRE=
TTITLE0=New Rock
TTITLE1=R&B(Rhythm&Basement)
TTITLE2=Great Five Lakes
TTITLE3=What's The Trouble With My Silver Turkey?
TTITLE4=Autobacs
TTITLE5=Socks,Drug, And Rock 'n' Roll
TTITLE6=Airport Rock
TTITLE7=Super Blooper
TTITLE8=Sad Guitar
TTITLE9=No Tokyo
TTITLE10=No New Rock
TTITLE11=Sky High
TTITLE12=Down Sea
TTITLE13=Jellyfish Blues
TTITLE14=Daisy
TTITLE15=Jellyfish Blues
EXTD=
EXTT0=
EXTT1=
EXTT2=
EXTT3=
EXTT4=
EXTT5=
EXTT6=
EXTT7=
EXTT8=
EXTT9=
EXTT10=
EXTT11=
EXTT12=
EXTT13=
EXTT14=
EXTT15=
PLAYORDER=
